/* XPM */
static char * getSize_xpm[] = {
"24 24 115 2",
"  	c None",
". 	c #7E92AF",
"+ 	c #42628E",
"@ 	c #729ECF",
"# 	c #7BA4D1",
"$ 	c #41618D",
"% 	c #84AAD0",
"& 	c #8EB0D4",
"* 	c #5F676E",
"= 	c #5B5E5D",
"- 	c #858785",
"; 	c #818A90",
"> 	c #B1B5B1",
", 	c #60625F",
"' 	c #5B5D59",
") 	c #ACB8C7",
"! 	c #4F5D69",
"~ 	c #7F898E",
"{ 	c #CBCDD7",
"] 	c #57759E",
"^ 	c #456593",
"/ 	c #B2C3D6",
"( 	c #525D68",
"_ 	c #D9E2EB",
": 	c #41618E",
"< 	c #6180AB",
"[ 	c #C1D3E7",
"} 	c #5979A4",
"| 	c #496995",
"1 	c #B7C0CC",
"2 	c #C2D5E8",
"3 	c #6080AB",
"4 	c #B8C1CE",
"5 	c #476794",
"6 	c #E6EEF6",
"7 	c #799DC5",
"8 	c #43628F",
"9 	c #EFEBE7",
"0 	c #789CC5",
"a 	c #E2EBF4",
"b 	c #8FA1BA",
"c 	c #53749F",
"d 	c #CFDDEE",
"e 	c #6988AF",
"f 	c #6681A7",
"g 	c #908F90",
"h 	c #555753",
"i 	c #6987AF",
"j 	c #B7CBE1",
"k 	c #6D87A9",
"l 	c #9CB0CA",
"m 	c #ABC3DD",
"n 	c #4F6E98",
"o 	c #EAEAEA",
"p 	c #C8C9C8",
"q 	c #4E6E98",
"r 	c #87ABD1",
"s 	c #6685AD",
"t 	c #C4C1BE",
"u 	c #4E4C4B",
"v 	c #4C6A94",
"w 	c #AFC0D6",
"x 	c #9FB5D0",
"y 	c #456591",
"z 	c #696F79",
"A 	c #C3C4C2",
"B 	c #6A6C68",
"C 	c #373A41",
"D 	c #83A4C8",
"E 	c #819EC0",
"F 	c #2B2C2A",
"G 	c #9D9E99",
"H 	c #4A6994",
"I 	c #B3C5DB",
"J 	c #7390B5",
"K 	c #5F7CA3",
"L 	c #CFD0CE",
"M 	c #8F908D",
"N 	c #90ADCE",
"O 	c #B0C1D9",
"P 	c #56749D",
"Q 	c #9DACC1",
"R 	c #999694",
"S 	c #576D89",
"T 	c #5D6160",
"U 	c #555A5A",
"V 	c #C5C3BF",
"W 	c #53709B",
"X 	c #869EBC",
"Y 	c #565B5A",
"Z 	c #E8E9E8",
"` 	c #DBDBDA",
" .	c #646561",
"..	c #6F88AB",
"+.	c #4D6B96",
"@.	c #5C78A1",
"#.	c #585D5C",
"$.	c #F0F0F0",
"%.	c #A6A7A4",
"&.	c #9AA8BD",
"*.	c #889AB3",
"=.	c #768596",
"-.	c #5C605D",
";.	c #BEBCB7",
">.	c #D9D5D1",
",.	c #D4D0CD",
"'.	c #D0CDC9",
").	c #CECBC7",
"!.	c #CCC9C5",
"~.	c #6B81A3",
"{.	c #D7D3CF",
"].	c #D1CECA",
"^.	c #CFCCC8",
"/.	c #D3CFCC",
"(.	c #6980A3",
"                                                ",
"                                                ",
"                    . + + .                     ",
"                    + @ # $                     ",
"                    + % & $                     ",
"                    * = = *                     ",
"                  - ; > > ; -                   ",
"                  , > ' ' > ,                   ",
"                  , > ' ' > ,                   ",
"                ) ! ~ > > ~ ! )                 ",
"            { ] ^ / ( = = ( _ ^ ] {             ",
"            : < [ } | 1 1 | } 2 3 :             ",
"          4 5 6 7 8 9 9 9 9 8 0 a 5 4           ",
"          b c d e f g h h g f i j c b           ",
"          k l m n 9 h o p h 9 q r s k           ",
"      t u v w x y z h A B h C y D E v F G       ",
"          H I J K   h L M h   K J N H           ",
"          : O P Q   R h h R   Q S T U V         ",
"          W X y                 Y Z `  .        ",
"          ..+.@.                #.$.%. .        ",
"          &.: *.                =.U -.;.        ",
"            :   >.,.'.).).!.).'.,.:             ",
"            ~.  {.,.].).^.!.'./.{.(.            ",
"                                                "};
